<?xml version="1.0" encoding="UTF-8"?>
<svg id="Capa_1" data-name="Capa 1" xmlns="http://www.w3.org/2000/svg" viewBox="0 0 420 297">
  <defs>
    <style>
      .cls-1 {
        fill: #cd9a62;
        stroke-width: 0px;
      }
    </style>
  </defs>
  <g id="Ilustración_1" data-name="Ilustración 1">
    <g>
      <path class="cls-1" d="m169.61,89.61c5.21.66,7.06,2.6,11.02,3.41-4.25-16.28-11.61-19.27-25.65-26.73.2-.28,10.6-.42,10.7-.79-14.7-19.77-35-16.16-54.67-18.96,1.12-2.07,3.61-2.49,4.33-4.88-8.24-1.17-16.16-.9-24.05.85-7.94,1.76-14.63,5.98-20.73,11.18-1.19-2.13,3.76-6.3,2.9-7.99-7.52.36-15.53,6.25-18.38,12.9-1.65,1.08-5.56,3.63-6.39,4.36-2.21,1.19-3.57,2.9-3.56,5.53,0,.87-.21,1.74-.33,2.6-1.27.64-15.94,12.5-20.69,16.44-.87.57-1.8,1.74-1.31,3.31.46,1.47,1.73,1.36,2.88,1.37,3.68.03,7.31-.58,7.85.3.54.88-3.82,2.15-5.59,3.14-2.11,1.18-3.91,2.53-4.57,4.98-1.93,7.09,3.07,13.75,10.33,14.84,2.82.43,5.66.74,8.49,1.06,3.44.39,9.69.44,9.55,3.34-.1,2-7.62.25-11.12-.28-3.27-.5-5.18-1.27-8.69-1.75-1.36-.19-4.97-.61-6.88-.02-1.63.5-4.86,1.92-6.43,3.06-2.12,1.54-6.93,5.45-1.53,12.27,0,0,.82-3.42,1.9-4.23.05.21.11.41.15.62-.05.67-.1,1.6-.07,1.97.68,5.73,3.25,10.27,11.82,14.33q-1.19-2.1-1.28-4.68s.09.04.26.11c1.73,2.83,4.69,5.37,9.69,7.74q-1.2-2.1-1.29-4.68s5.13,2.34,9.51,1.6l-2.73-3.28c1.66.08,3.35.02,5.03-.09l-1.26-1.9c.94-.09,1.81-.18,2.53-.27,1.28-.17,2.53-.22,3.74-.18l-1.82-1.56c2.4.39,4.99.59,7.83.27,4.97-.57,9.99-.93,14.95-1.74,18.03-2.94,24.77-15.07,24.75-31.34-.01-7.91-2.46-15.2-6.48-23.21,2.53,1.36,4.07,2.22,5.64,3.02,8.02,4.1,19.16,1.43,23.18-5.55,2.62-4.54,1.57-11.46-4.8-11.59-2.95-.06-5.96.39-10.23,1.31,4.38-7.14,10.48-6.39,14.8-4.75,6.66,2.52,10.22,10.6,7.62,16.82-1.6,3.85-4.39,6.71-8.11,8.7-3.91,2.09-7.59,4.68-12.38,5.03,11.52,19.47,11.32,35.5-.27,43.43-.07-1.88.6-3.57,1.01-5.31,1.34-5.7,2.57-11.43.39-17.21-.25-.68-.39-1.74-1.4-1.5-.47.11-.89.9-1.13,1.46-.31.7-.38,1.5-.61,2.25-3.93,13.18-12.16,22.11-25.74,25.49-9.97,2.48-20.03,4.6-30.01,7.04-16.08,3.93-25.94,12.94-26.99,29.49-.35,5.62-.2,5.73,5.38,5.45,1.81-.09,3.56-.49,2.74,2.77-3.95,15.57-15.05,25.37-7.33,39.3,1.11,2.02,2.59,5.14,5.63,5.63,4.97.79,14.47-16.23,14.06-13.34-1.08,7.56,9.71,25.05,15.03,28.12-1.57-2.92-2.61-9.13-2.61-9.13-11.88-52.67,70.85-60.91,97.82-99.75,12.26-18.21,13.74-29.9,8.02-45.63,14.67,16.53,14.32,44.4-3.68,63.36-14.79,15.47-30.32,22.5-45.49,29.79-9.17,5.58-18.57,10.82-27.49,16.8-3.17,2.12-6.17,4.43-8.98,6.92-4.62,4.6-9.74,8.56-13.38,16.64-5.46,11.87-.83,19.75,7.97,27.82,4.21,3.86,3.44-14.49,9.38-19.38,10.99-9.05,23.5-8.74,37.04-14.63,5.55-2.42,26.79-11.01,38.02-20.07,12.44-10.03,15.8-11.41,25.03-25.16.54-.81,2.96-5.25,3.32-4.7.97,1.49,1.28,3.3,2.99,5.47,9.36-22.27,12.76-62.6-19.21-87.44m-95.02-12.8c-16.33-1-24.13,2.16-24.13,2.16,0,0-1.4.34-1.07-.91.33-1.25,3.68-2.26,4.58-2.96.92-.74.59-2.92.67-4.28.09-1.34-.54-1.85.69-3.23,3.08-3.47,15.88,5.91,19.35,8.34.51.39.62.93-.09.88m43.23,78.4c-34.04,23.19-70.26,30.84-86.13,71.28-2.8-45.15,49.52-63.32,72.07-77.46,12.14-7.84,52.38-30.3,32.95-66.55,21.12,18.77,24.94,42.85-18.89,72.73m55.4,19.75c-22.39,28.83-80.03,37.94-92.64,50.69,0,0,5.07-16.11,29.73-26.4,8.39-3.5,26.14-12.34,37.39-17.6,37.05-17.31,32.17-63.5,33.65-60.74,11.27,21.17-1.01,45.54-8.12,54.05"/>
      <path class="cls-1" d="m239.68,85.51c-.58.17-7.12.34-11.49.45,0,0,1.09,74.23.2,80.89-.4,3-1.6,7.05-2.55,9.29-1.16,2.74-7.12,15.36-20.94,23.3-1.49.86,12.02-4.01,18.39-10.92,3.19-3.46,5.73-6.79,7.62-10.35,1.89-3.57,3.12-7.4,3.66-11.86.44-3.56.25-10.93.25-18.38v-45.12c0-5.24.14-9.83,1.44-12.43,1.09-2.19,2.93-3.22,3.42-3.42.79-.32.47-1.6,0-1.46"/>
      <path class="cls-1" d="m205.02,84.99h0c-.47-.1-.77,1.15.01,1.47,4.05.86,6.84,2.78,8.41,5.26,1.46,2.48,2.19,6.59,2.19,12.31v48.36c0,8.85-.89,16.09-2.68,21.71-1.83,5.67-4.99,10.85-9.47,15.55-4.54,4.8-10.5,8.85-17.68,12.31-.41.08-.63,1.17.1,1.46,8.21-1.13,15.31-4.29,21.3-9.48,6-5.19,9.99-11.26,11.99-18.22,2-6.86,3-15.82,3-26.89v-62.85c-3.79-.11-9.51-.43-17.17-.97"/>
      <path class="cls-1" d="m308.15,88.8c5.88,6.54,8.83,14.23,8.83,23.08s-2.95,15.66-8.83,21.71c10.85-4.65,15.19-12.12,15.19-22.44s-4.34-17.98-15.19-22.35"/>
      <path class="cls-1" d="m258.9,150.69v-44.53c.17-11.6.33-20.19.33-20.19-.1,0-10.93-.3-11.49-.46-.48-.13-.79,1.14,0,1.46.49.2,2.32,1.23,3.42,3.42,1.3,2.6,1.44,7.19,1.44,12.43v51.22c0,5.24-.14,9.83-1.44,12.43-1.09,2.19-2.93,3.22-3.42,3.42-.79.32-.48,1.59,0,1.46.56-.16,11.39-.45,11.49-.45,0,0-.15-8.59-.33-20.19"/>
      <path class="cls-1" d="m337.83,150.69v-44.53c.17-11.6.33-20.19.33-20.19-.11,0-10.94-.3-11.49-.46-.48-.13-.8,1.14,0,1.46.49.2,2.32,1.23,3.42,3.42,1.3,2.6,1.43,7.19,1.43,12.43v51.22c0,5.24-.14,9.83-1.43,12.43-1.1,2.19-2.93,3.22-3.42,3.42-.8.32-.48,1.59,0,1.46.56-.16,11.38-.45,11.49-.45,0,0-.16-8.59-.33-20.19"/>
      <path class="cls-1" d="m393.57,150.69v-44.53c-.17-11.6-.34-20.19-.34-20.19.11,0,10.94-.3,11.49-.46.48-.13.8,1.14,0,1.46-.48.2-2.32,1.23-3.41,3.42-1.3,2.6-1.44,7.19-1.44,12.43v51.22c0,5.24.14,9.83,1.44,12.43,1.09,2.19,2.93,3.22,3.41,3.42.8.32.48,1.59,0,1.46-.56-.16-11.38-.45-11.49-.45,0,0,.16-8.59.34-20.19"/>
      <path class="cls-1" d="m304.34,92.52c-4.54-5.02-11.63-7.01-21.22-7.53-6.3-.34-16.96.97-18.31.97v74.62c-.1,6.26-.17,10.29-.17,10.29.11,0,10.93.3,11.49.45.48.14.8-1.14,0-1.46-.49-.19-2.32-1.23-3.42-3.41-1.3-2.6-1.28-7.57-1.28-12.81l-.05-18.92c4.37,1.51,8.75,2.27,13.12,2.27,7.89,0,14.28-2.35,19.2-7.05,4.91-4.59,7.37-10.75,7.37-18.47s-2.24-13.88-6.72-18.96m-21.16,38.07c-.25,0-7.34-.34-11.8-2.8v-36.05c1.53-.64,6.55-1.09,11.8-.82,4.67.24,11.87,1.63,14.75,4.16,3.75,3.28,5.47,8.88,5.45,15.67-.02,8.16-3.69,19.84-20.21,19.84"/>
      <path class="cls-1" d="m387.54,106.15c.17-11.6.33-20.19.33-20.19-.11,0-10.94-.3-11.49-.45-.47-.13-.8,1.14,0,1.46.49.2,2.33,1.23,3.42,3.42,1.3,2.6,1.43,7.19,1.43,12.43v20.96h-31.06v-20.96c0-5.24.14-9.83,1.43-12.43,1.09-2.19,2.93-3.22,3.42-3.42.8-.32.48-1.59,0-1.46-.56.16-11.39.45-11.49.45,0,0,.16,8.59.34,20.19v44.53c-.17,11.6-.34,20.19-.34,20.19.11,0,10.94.3,11.49.45.48.13.8-1.14,0-1.46-.49-.19-2.32-1.23-3.42-3.41-1.3-2.6-1.43-7.19-1.43-12.43v-23.36h31.06v23.36c0,5.24-.13,9.83-1.43,12.43-1.09,2.19-2.93,3.22-3.42,3.41-.8.32-.47,1.6,0,1.46.56-.16,11.39-.45,11.49-.45,0,0-.16-8.59-.33-20.19v-44.53Z"/>
      <polygon class="cls-1" points="330.06 178.58 327.02 178.58 327.02 198.28 340.29 198.28 340.29 195.41 330.06 195.41 330.06 178.58"/>
      <rect class="cls-1" x="342.24" y="178.58" width="3.04" height="19.7"/>
      <path class="cls-1" d="m364.06,179.97c-.43-.43-.93-.77-1.5-1.02-.57-.25-1.19-.37-1.84-.37h-7.01c-.65,0-1.27.12-1.85.37-.57.25-1.08.59-1.52,1.02-.43.43-.77.94-1.01,1.52-.25.59-.37,1.2-.37,1.85v10.18c0,.65.12,1.27.37,1.84.24.58.58,1.1,1.01,1.52.43.43.94.78,1.52,1.02.58.25,1.2.37,1.85.37h7.01c.65,0,1.26-.12,1.84-.37.57-.25,1.08-.59,1.5-1.02.44-.43.78-.94,1.03-1.52.25-.57.37-1.2.37-1.85v-10.18c0-.65-.12-1.27-.37-1.85-.25-.58-.59-1.08-1.02-1.52m-1.65,3.52v9.88c0,.28-.06.54-.16.79-.12.27-.27.49-.45.68-.18.19-.39.33-.63.43-.25.1-.51.15-.81.15h-6.32c-.29,0-.56-.05-.8-.15-.25-.1-.47-.25-.66-.44-.19-.19-.34-.41-.44-.65-.1-.25-.15-.51-.15-.8v-9.88c0-.29.05-.56.15-.8.1-.25.24-.45.43-.63.2-.19.42-.34.68-.45.24-.11.51-.16.79-.16h6.32c.29,0,.54.05.79.16.25.11.47.26.65.44.18.18.32.4.44.65.11.25.17.51.17.79"/>
      <polygon class="cls-1" points="382.59 193.08 371.98 178.58 369.1 178.58 369.1 198.27 372.15 198.27 372.15 183.78 382.75 198.27 385.63 198.27 385.63 178.58 382.59 178.58 382.59 193.08"/>
      <path class="cls-1" d="m405.36,184.46v-1.12c0-.65-.13-1.28-.37-1.84-.24-.57-.59-1.08-1.02-1.52-.43-.43-.94-.77-1.52-1.02-.57-.25-1.2-.37-1.84-.37h-6.55c-.65,0-1.27.12-1.85.37-.57.25-1.08.59-1.52,1.02-.43.44-.78.95-1.02,1.52-.24.57-.37,1.2-.37,1.85v1.33c0,.65.12,1.27.37,1.84.25.57.59,1.07,1.02,1.51.44.43.94.77,1.52,1.01.58.25,1.2.37,1.85.37h6.22c.29,0,.55.06.79.16.25.11.47.26.66.45.19.19.33.4.45.65.1.24.15.5.15.79v1.92c0,.29-.05.55-.15.79-.12.26-.27.49-.46.68-.19.19-.39.33-.63.43-.25.1-.52.15-.81.15h-5.88c-.29,0-.56-.05-.8-.15-.24-.1-.47-.25-.65-.44-.19-.19-.34-.41-.44-.65-.1-.25-.16-.52-.16-.8v-.95h-3.03v1.1c0,.66.12,1.28.37,1.84.25.58.59,1.09,1.02,1.52.44.43.94.77,1.52,1.02s1.2.37,1.85.37h6.55c.65,0,1.27-.12,1.84-.37.58-.25,1.09-.59,1.52-1.02.43-.44.78-.95,1.01-1.52.25-.57.37-1.2.37-1.85v-2.17c0-.65-.13-1.28-.37-1.85-.24-.57-.59-1.08-1.02-1.51-.44-.42-.95-.76-1.5-1-.59-.26-1.2-.39-1.86-.39h-6.22c-.29,0-.56-.05-.8-.15-.24-.1-.47-.25-.65-.43-.19-.2-.34-.41-.44-.66-.1-.25-.16-.51-.16-.78v-1.08c0-.29.05-.56.16-.8.1-.25.24-.45.43-.63.2-.19.42-.34.67-.46.24-.11.51-.16.79-.16h5.88c.29,0,.55.05.79.16.25.11.47.26.66.45.19.18.33.4.45.65.1.24.15.51.15.79v.97h3.04Z"/>
    </g>
  </g>
</svg>